<svg width="20" height="20" viewBox="0 0 20 20" fill="none" xmlns="http://www.w3.org/2000/svg">
<path d="M6.18057 13.8196H13.8195V6.18073H6.18057V13.8196ZM11.2732 15.0928H8.72687V16.3659H7.45372V15.0928H5.544C5.37517 15.0928 5.21325 15.0257 5.09387 14.9063C4.97449 14.7869 4.90743 14.625 4.90743 14.4562V12.5465H3.63428V11.2733H4.90743V8.72703H3.63428V7.45388H4.90743V5.54416C4.90743 5.37533 4.97449 5.21341 5.09387 5.09403C5.21325 4.97465 5.37517 4.90759 5.544 4.90759H7.45372V3.63444H8.72687V4.90759H11.2732V3.63444H12.5463V4.90759H14.456C14.6249 4.90759 14.7868 4.97465 14.9062 5.09403C15.0255 5.21341 15.0926 5.37533 15.0926 5.54416V7.45388H16.3658V8.72703H15.0926V11.2733H16.3658V12.5465H15.0926V14.4562C15.0926 14.625 15.0255 14.7869 14.9062 14.9063C14.7868 15.0257 14.6249 15.0928 14.456 15.0928H12.5463V16.3659H11.2732V15.0928ZM7.45372 7.45388H12.5463V12.5465H7.45372V7.45388Z" fill="white"/>
</svg>
