<svg width="24" height="24" viewBox="0 0 24 24" fill="none" xmlns="http://www.w3.org/2000/svg">
<path d="M7.00643 6.21966C8.39255 5.01857 10.1659 4.35856 12 4.36112C16.2189 4.36112 19.6389 7.78105 19.6389 12C19.6389 13.6317 19.1271 15.1442 18.2562 16.3847L15.8194 12H18.1111C18.1112 10.8019 17.7591 9.63028 17.0987 8.63069C16.4382 7.63111 15.4985 6.8477 14.3964 6.37788C13.2943 5.90807 12.0784 5.77256 10.8999 5.98822C9.72144 6.20388 8.63233 6.76118 7.76803 7.59084L7.00643 6.21966ZM16.9935 17.7804C15.6074 18.9815 13.8341 19.6415 12 19.6389C7.78101 19.6389 4.36108 16.219 4.36108 12C4.36108 10.3683 4.87289 8.85584 5.74372 7.61529L8.18053 12H5.88886C5.88876 13.1981 6.24083 14.3697 6.90127 15.3693C7.56172 16.3689 8.50141 17.1523 9.60352 17.6221C10.7056 18.092 11.9215 18.2275 13.1 18.0118C14.2785 17.7961 15.3676 17.2388 16.2319 16.4092L16.9935 17.7804Z" fill="#0099FF"/>
</svg>
