<svg width="16" height="16" viewBox="0 0 16 16" fill="none" xmlns="http://www.w3.org/2000/svg">
<path d="M11.5648 6.98148H12.074C12.2091 6.98148 12.3386 7.03514 12.4341 7.13064C12.5296 7.22615 12.5833 7.35568 12.5833 7.49074V12.5833C12.5833 12.7184 12.5296 12.8479 12.4341 12.9434C12.3386 13.0389 12.2091 13.0926 12.074 13.0926H3.92589C3.79082 13.0926 3.66129 13.0389 3.56578 12.9434C3.47028 12.8479 3.41663 12.7184 3.41663 12.5833V7.49074C3.41663 7.35568 3.47028 7.22615 3.56578 7.13064C3.66129 7.03514 3.79082 6.98148 3.92589 6.98148H4.43514V6.47223C4.43514 6.00409 4.52735 5.54053 4.7065 5.10803C4.88565 4.67553 5.14823 4.28254 5.47925 3.95152C5.81028 3.6205 6.20326 3.35791 6.63576 3.17877C7.06827 2.99962 7.53182 2.90741 7.99996 2.90741C8.4681 2.90741 8.93165 2.99962 9.36415 3.17877C9.79666 3.35791 10.1896 3.6205 10.5207 3.95152C10.8517 4.28254 11.1143 4.67553 11.2934 5.10803C11.4726 5.54053 11.5648 6.00409 11.5648 6.47223V6.98148ZM4.43514 8V12.0741H11.5648V8H4.43514ZM7.4907 9.01852H8.50922V11.0556H7.4907V9.01852ZM10.5463 6.98148V6.47223C10.5463 5.79691 10.278 5.14924 9.80046 4.67172C9.32294 4.1942 8.67528 3.92593 7.99996 3.92593C7.32464 3.92593 6.67698 4.1942 6.19946 4.67172C5.72193 5.14924 5.45366 5.79691 5.45366 6.47223V6.98148H10.5463Z" fill="black"/>
</svg>
