<svg width="149" height="135" viewBox="0 0 149 135" fill="none" xmlns="http://www.w3.org/2000/svg">
<path d="M74.2954 71.4555L102.936 100.089L93.3844 109.64L81.0454 97.3013V135H67.5454V97.2878L55.2064 109.64L45.6552 100.089L74.2954 71.4555ZM74.2954 1.49958e-07C85.8851 0.000551946 97.0704 4.26002 105.725 11.9686C114.379 19.6771 119.899 30.2971 121.235 41.8095C129.634 44.0999 136.961 49.269 141.935 56.4133C146.909 63.5577 149.215 72.2229 148.448 80.8946C147.682 89.5664 143.893 97.693 137.742 103.854C131.592 110.016 123.472 113.82 114.802 114.602V101.007C117.908 100.563 120.895 99.5055 123.588 97.8951C126.281 96.2846 128.626 94.1539 130.486 91.6273C132.347 89.1006 133.685 86.2287 134.424 83.1792C135.162 80.1296 135.286 76.9635 134.787 73.8657C134.288 70.7679 133.178 67.8004 131.52 65.1365C129.862 62.4726 127.69 60.1656 125.131 58.3502C122.572 56.5348 119.677 55.2473 116.615 54.563C113.552 53.8787 110.385 53.8112 107.296 54.3645C108.353 49.443 108.296 44.3473 107.129 39.4507C105.962 34.5542 103.714 29.9807 100.55 26.0653C97.3865 22.15 93.3871 18.9918 88.8449 16.8223C84.3026 14.6528 79.3326 13.5268 74.2988 13.5268C69.265 13.5268 64.295 14.6528 59.7527 16.8223C55.2105 18.9918 51.2111 22.15 48.0474 26.0653C44.8837 29.9807 42.636 34.5542 41.4687 39.4507C40.3015 44.3473 40.2443 49.443 41.3014 54.3645C35.1431 53.208 28.7776 54.5453 23.6052 58.0821C18.4329 61.619 14.8774 67.0657 13.7209 73.224C12.5645 79.3823 13.9017 85.7478 17.4386 90.9202C20.9754 96.0925 26.4221 99.648 32.5804 100.805L33.7954 101.007V114.602C25.1247 113.821 17.0042 110.018 10.8531 103.857C4.70199 97.696 0.911635 89.5695 0.144478 80.8976C-0.622679 72.2257 1.68216 63.5599 6.65617 56.415C11.6302 49.27 18.9569 44.1004 27.3559 41.8095C28.6904 30.2965 34.2099 19.6756 42.8646 11.9668C51.5193 4.25803 62.7054 -0.000922743 74.2954 1.49958e-07Z" fill="#CDD3DF"/>
</svg>
