<svg width="24" height="24" viewBox="0 0 24 24" fill="none" xmlns="http://www.w3.org/2000/svg">
<path d="M8.94466 17.3473H5.12522C4.92262 17.3473 4.72832 17.2668 4.58507 17.1235C4.44181 16.9803 4.36133 16.786 4.36133 16.5834V7.41672C4.36133 7.21413 4.44181 7.01983 4.58507 6.87657C4.72832 6.73331 4.92262 6.65283 5.12522 6.65283H10.186L9.29452 8.18061H5.88911V15.8195H8.94466V17.3473ZM12.2867 17.3473L13.1781 15.8195H16.5836V8.18061H13.528V6.65283H17.3474C17.55 6.65283 17.7443 6.73331 17.8876 6.87657C18.0308 7.01983 18.1113 7.21413 18.1113 7.41672V16.5834C18.1113 16.786 18.0308 16.9803 17.8876 17.1235C17.7443 17.2668 17.55 17.3473 17.3474 17.3473H12.2867ZM18.8752 9.70839H20.403V14.2917H18.8752V9.70839ZM12.0002 11.2362H14.2919L10.4724 17.3473V12.7639H8.18077L12.0002 6.65283V11.2362Z" fill="#0099FF"/>
</svg>
