<svg width="24" height="24" viewBox="0 0 24 24" fill="none" xmlns="http://www.w3.org/2000/svg">
<path d="M12 12.4476L15.2411 15.688L14.1602 16.7689L12.7638 15.3725V19.6389H11.2361V15.371L9.83968 16.7689L8.75878 15.688L12 12.4476ZM12 4.36108C13.3115 4.36115 14.5774 4.84318 15.5568 5.71555C16.5362 6.58791 17.1609 7.78977 17.312 9.09261C18.2625 9.35181 19.0917 9.93679 19.6546 10.7453C20.2176 11.5538 20.4785 12.5345 20.3918 13.5158C20.305 14.4972 19.8762 15.4169 19.1802 16.1141C18.4842 16.8114 17.5653 17.2419 16.5841 17.3304V15.7919C16.9356 15.7417 17.2736 15.622 17.5783 15.4397C17.8831 15.2575 18.1485 15.0164 18.359 14.7304C18.5695 14.4445 18.721 14.1195 18.8046 13.7744C18.8881 13.4293 18.9021 13.0709 18.8457 12.7204C18.7893 12.3698 18.6636 12.034 18.476 11.7325C18.2884 11.431 18.0426 11.1699 17.753 10.9645C17.4633 10.7591 17.1357 10.6134 16.7892 10.5359C16.4426 10.4585 16.0841 10.4508 15.7346 10.5134C15.8542 9.95648 15.8478 9.37981 15.7157 8.82567C15.5836 8.27153 15.3292 7.75396 14.9712 7.31086C14.6132 6.86777 14.1605 6.51037 13.6465 6.26484C13.1325 6.01932 12.57 5.89189 12.0003 5.89189C11.4307 5.89189 10.8682 6.01932 10.3542 6.26484C9.84014 6.51037 9.38753 6.86777 9.0295 7.31086C8.67148 7.75396 8.4171 8.27153 8.285 8.82567C8.15291 9.37981 8.14644 9.95648 8.26607 10.5134C7.56914 10.3826 6.84876 10.5339 6.26342 10.9342C5.67807 11.3344 5.2757 11.9508 5.14482 12.6478C5.01394 13.3447 5.16528 14.0651 5.56554 14.6504C5.9658 15.2358 6.5822 15.6381 7.27913 15.769L7.41663 15.7919V17.3304C6.43537 17.242 5.51638 16.8116 4.82027 16.1144C4.12416 15.4172 3.69521 14.4976 3.60839 13.5162C3.52157 12.5348 3.78241 11.5541 4.34531 10.7455C4.90821 9.93691 5.73737 9.35187 6.68788 9.09261C6.8389 7.78971 7.46353 6.58775 8.44297 5.71536C9.42241 4.84296 10.6883 4.36098 12 4.36108Z" fill="#0099FF"/>
</svg>
