<svg width="20" height="20" viewBox="0 0 20 20" fill="none" xmlns="http://www.w3.org/2000/svg">
<path d="M9.99995 4.27084C12.727 4.27084 15.2326 5.22379 17.1996 6.81459L9.99995 15.7292L2.80029 6.81522C4.76731 5.22379 7.27159 4.27084 9.99995 4.27084ZM9.99995 8.72685C8.79173 8.72685 7.65544 9.03241 6.66366 9.57159L9.99931 13.703L13.3362 9.57159C12.3444 9.03241 11.2082 8.72685 9.99995 8.72685ZM9.99995 5.54398C8.0724 5.54398 6.22952 6.07998 4.63999 7.06667L5.85203 8.56707C7.07171 7.8592 8.48808 7.45371 9.99995 7.45371C11.5118 7.45371 12.9282 7.8592 14.1479 8.56707L15.3599 7.0654C13.7697 6.07934 11.9269 5.54398 9.99995 5.54398Z" fill="black"/>
</svg>
