<svg width="20" height="20" viewBox="0 0 20 20" fill="none" xmlns="http://www.w3.org/2000/svg">
<path d="M5.54402 7.45388V15.0928H14.4561V7.45388H5.54402ZM5.54402 6.18073H14.4561V4.90759H5.54402V6.18073ZM15.0926 16.3659H4.90745C4.73862 16.3659 4.5767 16.2989 4.45732 16.1795C4.33794 16.0601 4.27087 15.8982 4.27087 15.7293V4.27101C4.27087 4.10218 4.33794 3.94027 4.45732 3.82089C4.5767 3.7015 4.73862 3.63444 4.90745 3.63444H15.0926C15.2615 3.63444 15.4234 3.7015 15.5428 3.82089C15.6621 3.94027 15.7292 4.10218 15.7292 4.27101V15.7293C15.7292 15.8982 15.6621 16.0601 15.5428 16.1795C15.4234 16.2989 15.2615 16.3659 15.0926 16.3659ZM6.81717 8.72703H9.36347V11.2733H6.81717V8.72703ZM6.81717 12.5465H13.1829V13.8196H6.81717V12.5465ZM10.6366 9.3636H13.1829V10.6368H10.6366V9.3636Z" fill="black"/>
</svg>
