<svg width="24" height="24" viewBox="0 0 24 24" fill="none" xmlns="http://www.w3.org/2000/svg">
<path d="M12 12.4476L15.2412 15.6881L14.1603 16.769L12.7639 15.3726V19.6389H11.2361V15.371L9.83973 16.769L8.75883 15.6881L12 12.4476ZM12 4.36111C13.3116 4.36118 14.5774 4.84322 15.5568 5.71558C16.5362 6.58794 17.1609 7.7898 17.3121 9.09264C18.2626 9.35184 19.0917 9.93682 19.6547 10.7453C20.2176 11.5539 20.4785 12.5345 20.3918 13.5159C20.3051 14.4972 19.8762 15.4169 19.1802 16.1142C18.4842 16.8114 17.5653 17.2419 16.5841 17.3304V15.7919C16.9356 15.7417 17.2736 15.622 17.5784 15.4398C17.8831 15.2575 18.1485 15.0164 18.359 14.7305C18.5696 14.4445 18.7211 14.1195 18.8046 13.7744C18.8882 13.4293 18.9022 13.071 18.8458 12.7204C18.7893 12.3698 18.6637 12.034 18.476 11.7325C18.2884 11.4311 18.0426 11.17 17.753 10.9645C17.4634 10.7591 17.1358 10.6134 16.7892 10.5359C16.4427 10.4585 16.0842 10.4509 15.7347 10.5135C15.8543 9.95651 15.8478 9.37984 15.7157 8.8257C15.5836 8.27156 15.3293 7.75399 14.9712 7.31089C14.6132 6.8678 14.1606 6.5104 13.6465 6.26487C13.1325 6.01935 12.5701 5.89192 12.0004 5.89192C11.4307 5.89192 10.8683 6.01935 10.3542 6.26487C9.84019 6.5104 9.38758 6.8678 9.02955 7.31089C8.67152 7.75399 8.41714 8.27156 8.28505 8.8257C8.15295 9.37984 8.14648 9.95651 8.26612 10.5135C7.56919 10.3826 6.84881 10.5339 6.26346 10.9342C5.67811 11.3345 5.27574 11.9509 5.14487 12.6478C5.01399 13.3447 5.16533 14.0651 5.56559 14.6504C5.96585 15.2358 6.58224 15.6382 7.27917 15.769L7.41667 15.7919V17.3304C6.43542 17.2421 5.51643 16.8117 4.82032 16.1145C4.12421 15.4172 3.69526 14.4976 3.60844 13.5162C3.52162 12.5348 3.78246 11.5541 4.34536 10.7455C4.90826 9.93694 5.73742 9.3519 6.68792 9.09264C6.83895 7.78974 7.46358 6.58778 8.44302 5.71539C9.42246 4.84299 10.6884 4.36101 12 4.36111Z" fill="white"/>
</svg>
