<svg width="24" height="24" viewBox="0 0 24 24" fill="none" xmlns="http://www.w3.org/2000/svg">
<path d="M5.38478 15.8196C5.06186 15.2611 4.81084 14.6641 4.6377 14.0427C5.01453 13.8511 5.331 13.5589 5.55209 13.1986C5.77319 12.8382 5.89029 12.4237 5.89045 12.001C5.89061 11.5782 5.77382 11.1636 5.55299 10.8031C5.33216 10.4426 5.01591 10.1502 4.63922 9.95823C4.98453 8.70965 5.642 7.56952 6.54971 6.64525C6.90422 6.87573 7.3156 7.00363 7.7383 7.0148C8.16101 7.02597 8.57856 6.91997 8.94475 6.70852C9.31094 6.49708 9.61149 6.18844 9.81314 5.81676C10.0148 5.44509 10.1097 5.02487 10.0873 4.60261C11.3417 4.27843 12.6579 4.27896 13.9121 4.60414C13.8899 5.02639 13.9849 5.44655 14.1867 5.81811C14.3886 6.18968 14.6892 6.49818 15.0555 6.70946C15.4217 6.92074 15.8393 7.02657 16.262 7.01524C16.6847 7.00391 17.096 6.87585 17.4504 6.64525C17.8927 7.09594 18.2853 7.60851 18.6153 8.18066C18.9461 8.75282 19.1936 9.34941 19.3624 9.95747C18.9856 10.1491 18.6691 10.4413 18.448 10.8016C18.2269 11.162 18.1098 11.5765 18.1097 11.9993C18.1095 12.422 18.2263 12.8366 18.4471 13.1971C18.668 13.5576 18.9842 13.85 19.3609 14.042C19.0156 15.2906 18.3581 16.4307 17.4504 17.355C17.0959 17.1245 16.6845 16.9966 16.2618 16.9854C15.8391 16.9742 15.4216 17.0802 15.0554 17.2917C14.6892 17.5031 14.3886 17.8118 14.187 18.1834C13.9853 18.5551 13.8904 18.9753 13.9128 19.3976C12.6584 19.7218 11.3422 19.7213 10.088 19.3961C10.1102 18.9738 10.0152 18.5537 9.81336 18.1821C9.61156 17.8105 9.31089 17.502 8.94463 17.2908C8.57837 17.0795 8.16079 16.9736 7.73811 16.985C7.31543 16.9963 6.90412 17.1244 6.54971 17.355C6.09824 16.8943 5.70683 16.3784 5.38478 15.8196ZM9.70839 15.9693C10.5224 16.4388 11.1345 17.1923 11.4271 18.0852C11.8083 18.1211 12.191 18.1219 12.5722 18.086C12.8651 17.1929 13.4774 16.4394 14.2917 15.97C15.1054 15.4992 16.0643 15.3455 16.9844 15.5384C17.206 15.2268 17.3969 14.8945 17.5558 14.5469C16.929 13.8468 16.5827 12.9399 16.5834 12.0001C16.5834 11.0376 16.9424 10.1385 17.5558 9.4533C17.3958 9.10585 17.204 8.77393 16.9829 8.46178C16.0634 8.65451 15.1051 8.5011 14.2917 8.03094C13.4777 7.56143 12.8657 6.80794 12.573 5.91497C12.1918 5.87907 11.8091 5.8783 11.4279 5.91421C11.135 6.8073 10.5227 7.56081 9.70839 8.03018C8.89468 8.50097 7.93577 8.65467 7.01568 8.46178C6.79459 8.77366 6.60328 9.10563 6.44429 9.4533C7.07112 10.1535 7.4174 11.0604 7.41672 12.0001C7.41672 12.9626 7.0577 13.8617 6.44429 14.5469C6.60431 14.8944 6.79609 15.2263 7.01721 15.5384C7.93672 15.3457 8.89501 15.4991 9.70839 15.9693ZM12.0001 14.2918C11.3923 14.2918 10.8094 14.0503 10.3796 13.6206C9.94983 13.1908 9.70839 12.6079 9.70839 12.0001C9.70839 11.3923 9.94983 10.8094 10.3796 10.3797C10.8094 9.94988 11.3923 9.70844 12.0001 9.70844C12.6078 9.70844 13.1907 9.94988 13.6205 10.3797C14.0503 10.8094 14.2917 11.3923 14.2917 12.0001C14.2917 12.6079 14.0503 13.1908 13.6205 13.6206C13.1907 14.0503 12.6078 14.2918 12.0001 14.2918ZM12.0001 12.764C12.2027 12.764 12.397 12.6835 12.5402 12.5403C12.6835 12.397 12.7639 12.2027 12.7639 12.0001C12.7639 11.7975 12.6835 11.6032 12.5402 11.46C12.397 11.3167 12.2027 11.2362 12.0001 11.2362C11.7975 11.2362 11.6032 11.3167 11.4599 11.46C11.3166 11.6032 11.2362 11.7975 11.2362 12.0001C11.2362 12.2027 11.3166 12.397 11.4599 12.5403C11.6032 12.6835 11.7975 12.764 12.0001 12.764Z" fill="black"/>
</svg>
