<svg width="153" height="39" viewBox="0 0 153 39" fill="none" xmlns="http://www.w3.org/2000/svg">
<path d="M0.498185 38.1874L15.47 15.9149C19.9425 9.26134 29.6053 8.83845 34.7221 15.0103V15.0103C39.1242 20.32 47.1243 20.8839 52.1755 16.1875L58.4187 10.3827C62.7679 6.33894 69.7235 7.25345 72.8797 12.284V12.284C76.5543 18.141 85.0648 18.2087 88.8322 12.411L89.8533 10.8395C92.8806 6.18083 98.9781 4.62812 103.865 7.2716L104.573 7.65469C108.831 9.95832 114.075 9.35703 117.702 6.14928L120.569 3.61308C125.743 -0.963932 133.704 -0.239426 137.967 5.19655L142.773 11.3255C145.238 14.4687 149.971 14.5486 152.54 11.4904V11.4904" stroke="#0099FF" stroke-width="1.2"/>
</svg>
