<svg width="16" height="16" viewBox="0 0 16 16" fill="none" xmlns="http://www.w3.org/2000/svg">
<path d="M5.45366 6.98148H12.074C12.2091 6.98148 12.3386 7.03513 12.4341 7.13064C12.5296 7.22614 12.5833 7.35568 12.5833 7.49074V12.5833C12.5833 12.7184 12.5296 12.8479 12.4341 12.9434C12.3386 13.0389 12.2091 13.0926 12.074 13.0926H3.92589C3.79082 13.0926 3.66129 13.0389 3.56578 12.9434C3.47028 12.8479 3.41663 12.7184 3.41663 12.5833V7.49074C3.41663 7.35568 3.47028 7.22614 3.56578 7.13064C3.66129 7.03513 3.79082 6.98148 3.92589 6.98148H4.43514V6.47222C4.43485 5.66897 4.70586 4.88916 5.20422 4.2592C5.70259 3.62924 6.3991 3.18606 7.18087 3.0015C7.96263 2.81693 8.78381 2.9018 9.5113 3.24235C10.2388 3.5829 10.8299 4.15916 11.1889 4.87773L10.2779 5.33301C10.0215 4.81968 9.59918 4.40801 9.0795 4.16474C8.55982 3.92147 7.9732 3.86085 7.41476 3.99273C6.85632 4.1246 6.35878 4.44123 6.00283 4.89128C5.64687 5.34133 5.45336 5.89842 5.45366 6.47222V6.98148ZM4.43514 8V12.0741H11.5648V8H4.43514ZM6.98144 9.52778H9.01848V10.5463H6.98144V9.52778Z" fill="black"/>
</svg>
