<svg width="24" height="24" viewBox="0 0 24 24" fill="none" xmlns="http://www.w3.org/2000/svg">
<path d="M12 19.6389C7.78105 19.6389 4.36111 16.219 4.36111 12C4.36111 7.78105 7.78105 4.36111 12 4.36111C16.219 4.36111 19.6389 7.78105 19.6389 12C19.6389 16.219 16.219 19.6389 12 19.6389ZM12 18.1111C13.6208 18.1111 15.1752 17.4673 16.3212 16.3212C17.4673 15.1752 18.1111 13.6208 18.1111 12C18.1111 10.3792 17.4673 8.82485 16.3212 7.6788C15.1752 6.53274 13.6208 5.88889 12 5.88889C10.3792 5.88889 8.82485 6.53274 7.6788 7.6788C6.53274 8.82485 5.88889 10.3792 5.88889 12C5.88889 13.6208 6.53274 15.1752 7.6788 16.3212C8.82485 17.4673 10.3792 18.1111 12 18.1111ZM11.2384 15.0556L7.99723 11.8144L9.07736 10.7342L11.2384 12.8953L15.559 8.57396L16.6399 9.6541L11.2384 15.0556Z" fill="#2EC276"/>
</svg>
