<svg width="20" height="20" viewBox="0 0 20 20" fill="none" xmlns="http://www.w3.org/2000/svg">
<path d="M5.5439 7.45388V15.0928H14.4559V7.45388H5.5439ZM5.5439 6.18073H14.4559V4.90759H5.5439V6.18073ZM15.0925 16.3659H4.90733C4.7385 16.3659 4.57658 16.2989 4.4572 16.1795C4.33782 16.0601 4.27075 15.8982 4.27075 15.7293V4.27101C4.27075 4.10218 4.33782 3.94027 4.4572 3.82089C4.57658 3.7015 4.7385 3.63444 4.90733 3.63444H15.0925C15.2613 3.63444 15.4233 3.7015 15.5426 3.82089C15.662 3.94027 15.7291 4.10218 15.7291 4.27101V15.7293C15.7291 15.8982 15.662 16.0601 15.5426 16.1795C15.4233 16.2989 15.2613 16.3659 15.0925 16.3659ZM6.81705 8.72703H9.36334V11.2733H6.81705V8.72703ZM6.81705 12.5465H13.1828V13.8196H6.81705V12.5465ZM10.6365 9.3636H13.1828V10.6368H10.6365V9.3636Z" fill="white"/>
</svg>
