<svg width="24" height="24" viewBox="0 0 24 24" fill="none" xmlns="http://www.w3.org/2000/svg">
<path d="M12 5.125C15.2725 5.125 18.2792 6.26854 20.6396 8.1775L12 18.875L3.36042 8.17826C5.72083 6.26854 8.72597 5.125 12 5.125ZM12 14.2917C11.4706 14.2917 10.9558 14.381 10.4722 14.5514L12 16.4435L13.5278 14.5514C13.0465 14.3833 12.5294 14.2917 12 14.2917ZM12 6.65278C9.68694 6.65278 7.47549 7.29597 5.56806 8.48L9.47 13.3108C10.2415 12.9594 11.0971 12.7639 12 12.7639C12.9022 12.7639 13.7592 12.9594 14.53 13.3108L18.4319 8.47847C16.5238 7.29521 14.3123 6.65278 12 6.65278Z" fill="#0099FF"/>
</svg>
