<svg width="24" height="24" viewBox="0 0 24 24" fill="none" xmlns="http://www.w3.org/2000/svg">
<path d="M12 5.125C15.2725 5.125 18.2792 6.26854 20.6396 8.1775L12 18.875L3.36041 8.17826C5.72083 6.26854 8.72597 5.125 12 5.125ZM12 10.4722C10.5501 10.4722 9.18659 10.8389 7.99645 11.4859L11.9992 16.4435L16.0035 11.4859C14.8134 10.8389 13.4499 10.4722 12 10.4722ZM12 6.65278C9.68694 6.65278 7.47548 7.29597 5.56805 8.48L7.0225 10.2805C8.48611 9.43104 10.1858 8.94444 12 8.94444C13.8142 8.94444 15.5139 9.43104 16.9775 10.2805L18.4319 8.47847C16.5237 7.29521 14.3123 6.65278 12 6.65278Z" fill="white"/>
</svg>
