<svg width="24" height="24" viewBox="0 0 24 24" fill="none" xmlns="http://www.w3.org/2000/svg">
<path d="M12.0002 4.36108C16.2192 4.36108 19.6391 7.78101 19.6391 12C19.6391 16.2189 16.2192 19.6389 12.0002 19.6389C7.78126 19.6389 4.36133 16.2189 4.36133 12C4.36133 7.78101 7.78126 4.36108 12.0002 4.36108ZM12.0002 5.88886C10.3794 5.88886 8.82506 6.53271 7.67901 7.67876C6.53295 8.82482 5.88911 10.3792 5.88911 12C5.88911 13.6207 6.53295 15.1751 7.67901 16.3212C8.82506 17.4672 10.3794 18.1111 12.0002 18.1111C13.621 18.1111 15.1754 17.4672 16.3214 16.3212C17.4675 15.1751 18.1113 13.6207 18.1113 12C18.1113 10.3792 17.4675 8.82482 16.3214 7.67876C15.1754 6.53271 13.621 5.88886 12.0002 5.88886ZM12.0002 8.18053C12.8043 8.18083 13.5877 8.43488 14.239 8.90648C14.8902 9.37808 15.376 10.0432 15.6271 10.807C15.8783 11.5708 15.8819 12.3944 15.6376 13.1605C15.3933 13.9265 14.9135 14.5959 14.2665 15.0733C13.6195 15.5507 12.8383 15.8118 12.0343 15.8193C11.2303 15.8267 10.4444 15.5803 9.78865 15.115C9.13288 14.6498 8.64067 13.9894 8.38214 13.228C8.12361 12.4667 8.11195 11.6431 8.34883 10.8748C8.52752 11.2741 8.83793 11.5999 9.22811 11.7977C9.61829 11.9955 10.0646 12.0533 10.4923 11.9614C10.92 11.8695 11.3031 11.6335 11.5776 11.2929C11.8521 10.9523 12.0013 10.5277 12.0002 10.0903C12.0003 9.72241 11.8942 9.36237 11.6946 9.05341C11.495 8.74444 11.2104 8.49969 10.875 8.34858C11.231 8.23935 11.6083 8.18053 12.0002 8.18053Z" fill="#0099FF"/>
</svg>
