<svg width="24" height="24" viewBox="0 0 24 24" fill="none" xmlns="http://www.w3.org/2000/svg">
<path d="M12 19.6389C7.78105 19.6389 4.36111 16.2189 4.36111 12C4.36111 7.78102 7.78105 4.36109 12 4.36109C13.1861 4.3602 14.356 4.63591 15.4168 5.16633C16.4777 5.69675 17.4002 6.46726 18.1111 7.41664H16.041C15.1589 6.63882 14.071 6.13205 12.908 5.95716C11.7451 5.78226 10.5563 5.94666 9.48443 6.43062C8.41256 6.91459 7.5031 7.69757 6.8652 8.68561C6.22729 9.67364 5.88803 10.8248 5.88813 12.0008C5.88822 13.1769 6.22768 14.328 6.86575 15.3159C7.50382 16.3038 8.41341 17.0866 9.48536 17.5704C10.5573 18.0542 11.7461 18.2184 12.9091 18.0433C14.072 17.8682 15.1598 17.3613 16.0417 16.5833H18.1119C17.4009 17.5328 16.4782 18.3034 15.4172 18.8338C14.3563 19.3642 13.1862 19.6399 12 19.6389ZM17.3472 15.0555V12.7639H11.2361V11.2361H17.3472V8.94442L21.1667 12L17.3472 15.0555Z" fill="white"/>
</svg>
