<svg width="24" height="24" viewBox="0 0 24 24" fill="none" xmlns="http://www.w3.org/2000/svg">
<path d="M11.2359 13.528V11.2363H12.7637V13.528H16.5831C16.7857 13.528 16.98 13.6085 17.1233 13.7517C17.2665 13.895 17.347 14.0893 17.347 14.2919V18.8752C17.347 19.0778 17.2665 19.2721 17.1233 19.4154C16.98 19.5586 16.7857 19.6391 16.5831 19.6391H7.41646C7.21386 19.6391 7.01957 19.5586 6.87631 19.4154C6.73305 19.2721 6.65257 19.0778 6.65257 18.8752V14.2919C6.65257 14.0893 6.73305 13.895 6.87631 13.7517C7.01957 13.6085 7.21386 13.528 7.41646 13.528H11.2359ZM4.75049 9.58404C5.76264 6.54911 8.62646 4.36133 11.9998 4.36133C15.3731 4.36133 18.2377 6.54911 19.2491 9.58404L17.7992 10.0668C17.3934 8.84973 16.6149 7.79119 15.5741 7.04109C14.5332 6.29099 13.2828 5.88736 11.9998 5.88736C10.7168 5.88736 9.46637 6.29099 8.42553 7.04109C7.38469 7.79119 6.60621 8.84973 6.20035 10.0668L4.75125 9.58404H4.75049ZM7.65021 10.5504C7.95489 9.63783 8.53886 8.84423 9.31946 8.2819C10.1001 7.71958 11.0377 7.417 11.9998 7.417C12.9618 7.417 13.8995 7.71958 14.6801 8.2819C15.4607 8.84423 16.0447 9.63783 16.3494 10.5504L14.8995 11.0339C14.6964 10.4255 14.3071 9.89648 13.7867 9.5216C13.2663 9.14671 12.6412 8.94499 11.9998 8.94499C11.3584 8.94499 10.7333 9.14671 10.2129 9.5216C9.69251 9.89648 9.30319 10.4255 9.10007 11.0339L7.65021 10.5504ZM8.18035 15.0558V18.1113H15.8192V15.0558H8.18035Z" fill="#0099FF"/>
</svg>
