<svg width="24" height="24" viewBox="0 0 24 24" fill="none" xmlns="http://www.w3.org/2000/svg">
<path d="M14.9593 12.7639C14.7894 13.4195 14.4066 14.0001 13.871 14.4146C13.3354 14.8291 12.6773 15.054 12 15.054C11.3227 15.054 10.6646 14.8291 10.129 14.4146C9.59342 14.0001 9.21061 13.4195 9.04069 12.7639H5.125V11.2361H9.04069C9.21061 10.5805 9.59342 9.99992 10.129 9.58543C10.6646 9.17094 11.3227 8.94604 12 8.94604C12.6773 8.94604 13.3354 9.17094 13.871 9.58543C14.4066 9.99992 14.7894 10.5805 14.9593 11.2361H18.875V12.7639H14.9593ZM12 13.5278C12.4052 13.5278 12.7938 13.3668 13.0803 13.0803C13.3668 12.7938 13.5278 12.4052 13.5278 12C13.5278 11.5948 13.3668 11.2062 13.0803 10.9197C12.7938 10.6332 12.4052 10.4723 12 10.4723C11.5948 10.4723 11.2062 10.6332 10.9197 10.9197C10.6332 11.2062 10.4722 11.5948 10.4722 12C10.4722 12.4052 10.6332 12.7938 10.9197 13.0803C11.2062 13.3668 11.5948 13.5278 12 13.5278Z" fill="#0099FF"/>
</svg>
