<svg width="153" height="23" viewBox="0 0 153 23" fill="none" xmlns="http://www.w3.org/2000/svg">
<path d="M0.254817 13.2532L14.1378 6.75492C19.4622 4.26267 25.8081 5.98738 29.1385 10.8319L33.2796 16.8556C37.6963 23.2802 46.9661 23.8651 52.1553 18.0466L57.2681 12.3138C61.523 7.54289 69.2367 8.5066 72.187 14.1777V14.1777C75.5707 20.6818 84.8524 20.7491 88.3301 14.2948L89.4177 12.2764C92.2715 6.97997 99.0439 5.25598 104.083 8.54324V8.54324C108.259 11.2676 113.788 10.602 117.198 6.96428L119.701 4.29478C124.887 -1.23738 133.887 -0.440901 138.021 5.91608L142.69 13.0964C144.98 16.6172 150.106 16.6991 152.507 13.2532V13.2532" stroke="#0099FF" stroke-width="1.2"/>
</svg>
