<svg width="133" height="40" viewBox="0 0 133 40" fill="none" xmlns="http://www.w3.org/2000/svg">
<path d="M5.63356 34.031V35.5884H7.33134V36.0898H5.63356V37.694H7.53187V38.1953H5.0253V33.5297H7.53187V34.031H5.63356Z" fill="url(#paint0_linear_1_2319)"/>
<path d="M13.7127 34.4655C14.1583 34.4655 14.5192 34.6014 14.7955 34.8732C15.0718 35.1406 15.2099 35.5283 15.2099 36.0363V38.1953H14.6084V36.1232C14.6084 35.7578 14.517 35.4793 14.3343 35.2877C14.1516 35.0916 13.9021 34.9936 13.5857 34.9936C13.2649 34.9936 13.0086 35.0938 12.817 35.2943C12.6299 35.4949 12.5363 35.7867 12.5363 36.17V38.1953H11.928V34.5323H12.5363V35.0537C12.6566 34.8666 12.8192 34.7217 13.0242 34.6192C13.2337 34.5168 13.4632 34.4655 13.7127 34.4655Z" fill="url(#paint1_linear_1_2319)"/>
<path d="M23.0214 36.2234C23.0214 36.3393 23.0147 36.4618 23.0013 36.5911H20.0737C20.096 36.952 20.2185 37.235 20.4413 37.44C20.6686 37.6405 20.9426 37.7407 21.2635 37.7407C21.5264 37.7407 21.7447 37.6806 21.9185 37.5603C22.0968 37.4355 22.2215 37.2706 22.2928 37.0657H22.9479C22.8498 37.4177 22.6538 37.7051 22.3597 37.9279C22.0656 38.1463 21.7002 38.2554 21.2635 38.2554C20.9159 38.2554 20.604 38.1774 20.3277 38.0215C20.0559 37.8655 19.842 37.6449 19.686 37.3598C19.53 37.0701 19.452 36.7359 19.452 36.3571C19.452 35.9784 19.5278 35.6464 19.6793 35.3612C19.8308 35.076 20.0425 34.8576 20.3143 34.7061C20.5906 34.5502 20.907 34.4722 21.2635 34.4722C21.611 34.4722 21.9185 34.5479 22.1859 34.6995C22.4532 34.851 22.6582 35.0604 22.8008 35.3278C22.9479 35.5907 23.0214 35.8892 23.0214 36.2234ZM22.3931 36.0964C22.3931 35.8647 22.3418 35.6664 22.2393 35.5016C22.1369 35.3322 21.9965 35.2052 21.8182 35.1206C21.6445 35.0314 21.4506 34.9869 21.2367 34.9869C20.9292 34.9869 20.6663 35.0849 20.448 35.281C20.2341 35.477 20.1116 35.7489 20.0804 36.0964H22.3931Z" fill="url(#paint2_linear_1_2319)"/>
<path d="M27.9083 35.1272C28.0153 34.9178 28.1668 34.7552 28.3628 34.6393C28.5634 34.5234 28.8062 34.4655 29.0914 34.4655V35.0938H28.931C28.2492 35.0938 27.9083 35.4637 27.9083 36.2034V38.1953H27.3V34.5323H27.9083V35.1272Z" fill="url(#paint3_linear_1_2319)"/>
<path d="M34.78 34.4722C35.0963 34.4722 35.3726 34.5413 35.6088 34.6794C35.8494 34.8175 36.0277 34.9913 36.1435 35.2008V34.5323H36.7585V38.2755C36.7585 38.6097 36.6872 38.906 36.5446 39.1645C36.402 39.4274 36.197 39.6324 35.9296 39.7794C35.6667 39.9265 35.3592 40 35.0072 40C34.526 40 34.1249 39.8864 33.8041 39.6591C33.4832 39.4318 33.2938 39.1221 33.2359 38.73H33.8375C33.9043 38.9528 34.0425 39.1311 34.2519 39.2647C34.4613 39.4029 34.7131 39.472 35.0072 39.472C35.3414 39.472 35.6132 39.3672 35.8227 39.1578C36.0366 38.9484 36.1435 38.6543 36.1435 38.2755V37.5068C36.0232 37.7207 35.845 37.8989 35.6088 38.0415C35.3726 38.1841 35.0963 38.2554 34.78 38.2554C34.4547 38.2554 34.1583 38.1752 33.891 38.0148C33.628 37.8544 33.4208 37.6293 33.2693 37.3397C33.1178 37.0501 33.0421 36.7203 33.0421 36.3504C33.0421 35.9761 33.1178 35.6486 33.2693 35.3679C33.4208 35.0827 33.628 34.8621 33.891 34.7061C34.1583 34.5502 34.4547 34.4722 34.78 34.4722ZM36.1435 36.3571C36.1435 36.0808 36.0878 35.8402 35.9764 35.6352C35.865 35.4303 35.7135 35.2743 35.5219 35.1673C35.3347 35.0559 35.1275 35.0002 34.9003 35.0002C34.673 35.0002 34.4658 35.0537 34.2786 35.1607C34.0915 35.2676 33.9422 35.4236 33.8308 35.6286C33.7194 35.8335 33.6637 36.0742 33.6637 36.3504C33.6637 36.6312 33.7194 36.8763 33.8308 37.0857C33.9422 37.2907 34.0915 37.4489 34.2786 37.5603C34.4658 37.6672 34.673 37.7207 34.9003 37.7207C35.1275 37.7207 35.3347 37.6672 35.5219 37.5603C35.7135 37.4489 35.865 37.2907 35.9764 37.0857C36.0878 36.8763 36.1435 36.6334 36.1435 36.3571Z" fill="url(#paint4_linear_1_2319)"/>
<path d="M44.4171 34.5323L42.2113 39.9198H41.583L42.3049 38.1552L40.8277 34.5323H41.5028L42.6524 37.5001L43.7888 34.5323H44.4171Z" fill="url(#paint5_linear_1_2319)"/>
<path d="M58.4878 33.5698V38.1953H57.8795V34.7462L56.3422 38.1953H55.9144L54.3703 34.7396V38.1953H53.7621V33.5698H54.4171L56.1283 37.3932L57.8394 33.5698H58.4878Z" fill="url(#paint6_linear_1_2319)"/>
<path d="M62.7678 36.3504C62.7678 35.9761 62.8436 35.6486 62.9951 35.3679C63.1466 35.0827 63.3538 34.8621 63.6167 34.7061C63.8841 34.5502 64.1804 34.4722 64.5057 34.4722C64.8266 34.4722 65.1051 34.5413 65.3413 34.6794C65.5774 34.8175 65.7534 34.9913 65.8693 35.2008V34.5323H66.4842V38.1953H65.8693V37.5135C65.749 37.7274 65.5685 37.9056 65.3279 38.0482C65.0917 38.1864 64.8154 38.2554 64.499 38.2554C64.1737 38.2554 63.8796 38.1752 63.6167 38.0148C63.3538 37.8544 63.1466 37.6293 62.9951 37.3397C62.8436 37.0501 62.7678 36.7203 62.7678 36.3504ZM65.8693 36.3571C65.8693 36.0808 65.8136 35.8402 65.7022 35.6352C65.5908 35.4303 65.4393 35.2743 65.2477 35.1673C65.0605 35.0559 64.8533 35.0002 64.626 35.0002C64.3988 35.0002 64.1916 35.0537 64.0044 35.1607C63.8173 35.2676 63.668 35.4236 63.5566 35.6286C63.4452 35.8335 63.3895 36.0742 63.3895 36.3504C63.3895 36.6312 63.4452 36.8763 63.5566 37.0857C63.668 37.2907 63.8173 37.4489 64.0044 37.5603C64.1916 37.6672 64.3988 37.7207 64.626 37.7207C64.8533 37.7207 65.0605 37.6672 65.2477 37.5603C65.4393 37.4489 65.5908 37.2907 65.7022 37.0857C65.8136 36.8763 65.8693 36.6334 65.8693 36.3571Z" fill="url(#paint7_linear_1_2319)"/>
<path d="M72.7726 34.4655C73.2182 34.4655 73.5791 34.6014 73.8554 34.8732C74.1317 35.1406 74.2698 35.5283 74.2698 36.0363V38.1953H73.6683V36.1232C73.6683 35.7578 73.5769 35.4793 73.3942 35.2877C73.2115 35.0916 72.962 34.9936 72.6456 34.9936C72.3247 34.9936 72.0685 35.0938 71.8769 35.2943C71.6898 35.4949 71.5962 35.7867 71.5962 36.17V38.1953H70.9879V34.5323H71.5962V35.0537C71.7165 34.8666 71.8791 34.7217 72.0841 34.6192C72.2935 34.5168 72.523 34.4655 72.7726 34.4655Z" fill="url(#paint8_linear_1_2319)"/>
<path d="M78.5119 36.3504C78.5119 35.9761 78.5877 35.6486 78.7392 35.3679C78.8907 35.0827 79.0979 34.8621 79.3608 34.7061C79.6282 34.5502 79.9245 34.4722 80.2498 34.4722C80.5707 34.4722 80.8492 34.5413 81.0854 34.6794C81.3215 34.8175 81.4975 34.9913 81.6134 35.2008V34.5323H82.2283V38.1953H81.6134V37.5135C81.4931 37.7274 81.3126 37.9056 81.072 38.0482C80.8358 38.1864 80.5595 38.2554 80.2431 38.2554C79.9178 38.2554 79.6237 38.1752 79.3608 38.0148C79.0979 37.8544 78.8907 37.6293 78.7392 37.3397C78.5877 37.0501 78.5119 36.7203 78.5119 36.3504ZM81.6134 36.3571C81.6134 36.0808 81.5577 35.8402 81.4463 35.6352C81.3349 35.4303 81.1834 35.2743 80.9918 35.1673C80.8046 35.0559 80.5974 35.0002 80.3701 35.0002C80.1429 35.0002 79.9357 35.0537 79.7485 35.1607C79.5614 35.2676 79.4121 35.4236 79.3007 35.6286C79.1893 35.8335 79.1336 36.0742 79.1336 36.3504C79.1336 36.6312 79.1893 36.8763 79.3007 37.0857C79.4121 37.2907 79.5614 37.4489 79.7485 37.5603C79.9357 37.6672 80.1429 37.7207 80.3701 37.7207C80.5974 37.7207 80.8046 37.6672 80.9918 37.5603C81.1834 37.4489 81.3349 37.2907 81.4463 37.0857C81.5577 36.8763 81.6134 36.6334 81.6134 36.3571Z" fill="url(#paint9_linear_1_2319)"/>
<path d="M88.2426 34.4722C88.559 34.4722 88.8353 34.5413 89.0715 34.6794C89.3121 34.8175 89.4904 34.9913 89.6062 35.2008V34.5323H90.2212V38.2755C90.2212 38.6097 90.1499 38.906 90.0073 39.1645C89.8647 39.4274 89.6597 39.6324 89.3923 39.7794C89.1294 39.9265 88.8219 40 88.4699 40C87.9886 40 87.5876 39.8864 87.2667 39.6591C86.9459 39.4318 86.7565 39.1221 86.6986 38.73H87.3002C87.367 38.9528 87.5051 39.1311 87.7146 39.2647C87.924 39.4029 88.1758 39.472 88.4699 39.472C88.8041 39.472 89.0759 39.3672 89.2854 39.1578C89.4993 38.9484 89.6062 38.6543 89.6062 38.2755V37.5068C89.4859 37.7207 89.3076 37.8989 89.0715 38.0415C88.8353 38.1841 88.559 38.2554 88.2426 38.2554C87.9173 38.2554 87.621 38.1752 87.3536 38.0148C87.0907 37.8544 86.8835 37.6293 86.732 37.3397C86.5805 37.0501 86.5048 36.7203 86.5048 36.3504C86.5048 35.9761 86.5805 35.6486 86.732 35.3679C86.8835 35.0827 87.0907 34.8621 87.3536 34.7061C87.621 34.5502 87.9173 34.4722 88.2426 34.4722ZM89.6062 36.3571C89.6062 36.0808 89.5505 35.8402 89.4391 35.6352C89.3277 35.4303 89.1762 35.2743 88.9846 35.1673C88.7974 35.0559 88.5902 35.0002 88.363 35.0002C88.1357 35.0002 87.9285 35.0537 87.7413 35.1607C87.5542 35.2676 87.4049 35.4236 87.2935 35.6286C87.1821 35.8335 87.1264 36.0742 87.1264 36.3504C87.1264 36.6312 87.1821 36.8763 87.2935 37.0857C87.4049 37.2907 87.5542 37.4489 87.7413 37.5603C87.9285 37.6672 88.1357 37.7207 88.363 37.7207C88.5902 37.7207 88.7974 37.6672 88.9846 37.5603C89.1762 37.4489 89.3277 37.2907 89.4391 37.0857C89.5505 36.8763 89.6062 36.6334 89.6062 36.3571Z" fill="url(#paint10_linear_1_2319)"/>
<path d="M98.0669 36.2234C98.0669 36.3393 98.0602 36.4618 98.0469 36.5911H95.1192C95.1415 36.952 95.264 37.235 95.4868 37.44C95.7141 37.6405 95.9881 37.7407 96.309 37.7407C96.5719 37.7407 96.7902 37.6806 96.964 37.5603C97.1423 37.4355 97.267 37.2706 97.3383 37.0657H97.9934C97.8953 37.4177 97.6993 37.7051 97.4052 37.9279C97.1111 38.1463 96.7457 38.2554 96.309 38.2554C95.9614 38.2554 95.6495 38.1774 95.3732 38.0215C95.1014 37.8655 94.8875 37.6449 94.7315 37.3598C94.5755 37.0701 94.4976 36.7359 94.4976 36.3571C94.4976 35.9784 94.5733 35.6464 94.7248 35.3612C94.8763 35.076 95.088 34.8576 95.3598 34.7061C95.6361 34.5502 95.9525 34.4722 96.309 34.4722C96.6565 34.4722 96.964 34.5479 97.2314 34.6995C97.4988 34.851 97.7037 35.0604 97.8463 35.3278C97.9934 35.5907 98.0669 35.8892 98.0669 36.2234ZM97.4386 36.0964C97.4386 35.8647 97.3873 35.6664 97.2849 35.5016C97.1824 35.3322 97.042 35.2052 96.8638 35.1206C96.69 35.0314 96.4961 34.9869 96.2822 34.9869C95.9748 34.9869 95.7118 35.0849 95.4935 35.281C95.2796 35.477 95.1571 35.7489 95.1259 36.0964H97.4386Z" fill="url(#paint11_linear_1_2319)"/>
<path d="M106.75 34.4655C107.036 34.4655 107.29 34.5257 107.512 34.646C107.735 34.7618 107.911 34.9379 108.04 35.174C108.17 35.4102 108.234 35.6976 108.234 36.0363V38.1953H107.633V36.1232C107.633 35.7578 107.541 35.4793 107.359 35.2877C107.18 35.0916 106.938 34.9936 106.63 34.9936C106.314 34.9936 106.062 35.096 105.875 35.301C105.688 35.5016 105.594 35.7934 105.594 36.1767V38.1953H104.992V36.1232C104.992 35.7578 104.901 35.4793 104.718 35.2877C104.54 35.0916 104.297 34.9936 103.99 34.9936C103.673 34.9936 103.422 35.096 103.235 35.301C103.047 35.5016 102.954 35.7934 102.954 36.1767V38.1953H102.346V34.5323H102.954V35.0604C103.074 34.8688 103.235 34.7217 103.435 34.6192C103.64 34.5168 103.865 34.4655 104.11 34.4655C104.418 34.4655 104.689 34.5346 104.926 34.6727C105.162 34.8109 105.338 35.0136 105.454 35.281C105.556 35.0225 105.726 34.822 105.962 34.6794C106.198 34.5368 106.461 34.4655 106.75 34.4655Z" fill="url(#paint12_linear_1_2319)"/>
<path d="M116.05 36.2234C116.05 36.3393 116.043 36.4618 116.03 36.5911H113.102C113.125 36.952 113.247 37.235 113.47 37.44C113.697 37.6405 113.971 37.7407 114.292 37.7407C114.555 37.7407 114.773 37.6806 114.947 37.5603C115.125 37.4355 115.25 37.2706 115.321 37.0657H115.976C115.878 37.4177 115.682 37.7051 115.388 37.9279C115.094 38.1463 114.729 38.2554 114.292 38.2554C113.944 38.2554 113.632 38.1774 113.356 38.0215C113.084 37.8655 112.871 37.6449 112.715 37.3598C112.559 37.0701 112.481 36.7359 112.481 36.3571C112.481 35.9784 112.556 35.6464 112.708 35.3612C112.859 35.076 113.071 34.8576 113.343 34.7061C113.619 34.5502 113.936 34.4722 114.292 34.4722C114.64 34.4722 114.947 34.5479 115.214 34.6995C115.482 34.851 115.687 35.0604 115.829 35.3278C115.976 35.5907 116.05 35.8892 116.05 36.2234ZM115.422 36.0964C115.422 35.8647 115.37 35.6664 115.268 35.5016C115.165 35.3322 115.025 35.2052 114.847 35.1206C114.673 35.0314 114.479 34.9869 114.265 34.9869C113.958 34.9869 113.695 35.0849 113.477 35.281C113.263 35.477 113.14 35.7489 113.109 36.0964H115.422Z" fill="url(#paint13_linear_1_2319)"/>
<path d="M122.113 34.4655C122.559 34.4655 122.92 34.6014 123.196 34.8732C123.472 35.1406 123.611 35.5283 123.611 36.0363V38.1953H123.009V36.1232C123.009 35.7578 122.918 35.4793 122.735 35.2877C122.552 35.0916 122.303 34.9936 121.986 34.9936C121.665 34.9936 121.409 35.0938 121.218 35.2943C121.03 35.4949 120.937 35.7867 120.937 36.17V38.1953H120.329V34.5323H120.937V35.0537C121.057 34.8666 121.22 34.7217 121.425 34.6192C121.634 34.5168 121.864 34.4655 122.113 34.4655Z" fill="url(#paint14_linear_1_2319)"/>
<path d="M128.822 35.0337V37.1926C128.822 37.3709 128.86 37.4979 128.935 37.5736C129.011 37.6449 129.143 37.6806 129.33 37.6806H129.778V38.1953H129.23C128.891 38.1953 128.637 38.1173 128.468 37.9613C128.298 37.8054 128.214 37.5491 128.214 37.1926V35.0337H127.739V34.5323H128.214V33.6099H128.822V34.5323H129.778V35.0337H128.822Z" fill="url(#paint15_linear_1_2319)"/>
<path d="M16.4351 13.7287H4.24108C4.27862 14.7987 4.72815 15.8127 5.49576 16.559C6.24121 17.2436 7.22397 17.6109 8.23567 17.5831C8.93229 17.6257 9.62539 17.4554 10.223 17.0948C10.8205 16.7342 11.2943 16.2005 11.5814 15.5644H16.1254C15.668 17.1504 14.7071 18.5445 13.3877 19.5363C11.9345 20.5983 10.168 21.1441 8.36904 21.0871C6.86057 21.112 5.37166 20.7434 4.04893 20.0178C2.78582 19.316 1.75087 18.2661 1.06714 16.9931C0.334677 15.6006 -0.0317416 14.0448 0.00235494 12.4718C-0.0329548 10.8921 0.329302 9.32878 1.05583 7.92559C1.7249 6.65516 2.75125 5.60839 4.00826 4.91441C5.34077 4.22873 6.81668 3.86819 8.31525 3.86229C9.81383 3.8564 11.2925 4.20532 12.6304 4.8805C13.8714 5.54383 14.8925 6.55396 15.5692 7.7877C16.2775 9.11575 16.6339 10.603 16.6046 12.1078C16.5926 12.6518 16.5359 13.194 16.4351 13.7287ZM12.1918 10.8961C12.1983 10.4032 12.0972 9.91492 11.8957 9.46511C11.6925 9.01532 11.3922 8.61615 11.0163 8.29634C10.2358 7.63643 9.23922 7.28787 8.21759 7.31749C7.2518 7.2881 6.31073 7.62574 5.58392 8.26243C4.84165 8.95232 4.37494 9.88813 4.27047 10.8961H12.1918Z" fill="#05579A"/>
<path d="M33.0879 5.76679C34.3086 7.0207 34.9205 8.77119 34.9235 11.0183V20.7911H30.7074V11.5902C30.7074 10.2655 30.3759 9.24669 29.7127 8.53383C29.3633 8.17216 28.9402 7.88973 28.4722 7.70565C28.0042 7.52156 27.5022 7.44012 27 7.46681C26.4921 7.44194 25.9846 7.52355 25.5102 7.70642C25.0362 7.89049 24.6064 8.17243 24.2487 8.53383C23.575 9.24819 23.2382 10.267 23.2382 11.5902V20.7911H19.0221V4.12329H23.2382V6.21439C23.8106 5.48451 24.5483 4.90106 25.3903 4.51211C26.2921 4.09614 27.2751 3.8861 28.2681 3.89722C29.1568 3.8588 30.0437 4.0051 30.8729 4.32689C31.7021 4.64869 32.4555 5.13899 33.0856 5.76679H33.0879Z" fill="#05579A"/>
<path d="M54.3079 13.7265H42.114C42.15 14.7975 42.5997 15.8128 43.3686 16.5591C44.1152 17.2418 45.0972 17.6089 46.1085 17.5832C46.8052 17.6246 47.4981 17.4536 48.0955 17.0927C48.6929 16.7318 49.1667 16.1981 49.4543 15.5622H53.9982C53.5299 17.1488 52.5568 18.5393 51.2267 19.5228C49.774 20.5859 48.0072 21.1319 46.208 21.0736C44.7001 21.0999 43.2116 20.7312 41.8902 20.0044C40.6252 19.306 39.5895 18.2562 38.9084 16.9819C38.1721 15.5905 37.8033 14.0343 37.8368 12.4606C37.8027 10.881 38.1648 9.31798 38.8903 7.91439C39.5593 6.64395 40.5857 5.59716 41.8427 4.90318C43.176 4.2171 44.6528 3.85656 46.1522 3.85106C47.6517 3.84556 49.1311 4.19525 50.4693 4.87153C51.7075 5.53377 52.725 6.54351 53.3969 7.77649C54.1086 9.1034 54.4667 10.5912 54.4368 12.0966C54.4394 12.6426 54.3963 13.1878 54.3079 13.7265ZM50.0647 10.8962C50.0711 10.4033 49.9701 9.915 49.7686 9.46519C49.5654 9.0154 49.265 8.61623 48.8891 8.29642C48.1066 7.6386 47.1101 7.29036 46.0882 7.31757C45.1216 7.28761 44.1796 7.62528 43.4522 8.26251C42.712 8.95335 42.247 9.88895 42.1433 10.8962H50.0647Z" fill="#3EA1DA"/>
<path d="M66.113 20.7912L62.6791 15.6233L59.6386 20.8002H55.1172L60.5428 12.4358L55.0607 4.11431H59.8081L63.2127 9.26635L66.2826 4.11431H70.8039L65.3445 12.4267L70.8853 20.7912H66.113Z" fill="#3EA1DA"/>
<path d="M79.615 4.62073C80.6226 4.09806 81.7445 3.83467 82.8794 3.85436C84.2431 3.83778 85.5844 4.20266 86.7518 4.90784C87.9265 5.63133 88.8756 6.66883 89.4918 7.9032C90.1881 9.29868 90.5341 10.8427 90.5 12.4019C90.5299 13.9679 90.1842 15.5183 89.4918 16.9232C88.8752 18.1734 87.9275 19.2306 86.7518 19.9796C85.5918 20.705 84.2474 21.0809 82.8794 21.0625C81.755 21.0865 80.6426 20.8277 79.6443 20.3097C78.7632 19.8473 77.9921 19.2004 77.3837 18.413V28.7351H73.1699V4.09401H77.3769V6.50387C77.9673 5.71154 78.7334 5.06692 79.615 4.62073ZM85.5763 9.80216C85.201 9.10393 84.638 8.52449 83.9509 8.12927C83.2858 7.74995 82.5327 7.55196 81.7671 7.55508C81.0097 7.55489 80.2663 7.7587 79.615 8.14511C78.9279 8.55219 78.365 9.13924 77.9873 9.84286C77.5843 10.6575 77.3747 11.5541 77.3747 12.463C77.3747 13.3718 77.5843 14.2684 77.9873 15.083C78.3648 15.788 78.9277 16.3766 79.615 16.7853C80.2717 17.1731 81.0203 17.3776 81.7829 17.3776C82.5455 17.3776 83.2942 17.1731 83.9509 16.7853C84.6367 16.3694 85.1981 15.7768 85.5763 15.0695C86.0049 14.2536 86.2166 13.3412 86.1912 12.42C86.2195 11.5091 86.0091 10.6066 85.5808 9.80216H85.5763Z" fill="#3EA1DA"/>
<path d="M108.956 13.7289H96.7616C96.7991 14.7989 97.2487 15.8129 98.0163 16.5592C98.7625 17.2426 99.7447 17.6097 100.756 17.5833C101.453 17.6259 102.146 17.4555 102.743 17.095C103.341 16.7344 103.815 16.2007 104.102 15.5645H108.65C108.184 17.1541 107.213 18.5485 105.883 19.5365C104.431 20.5996 102.664 21.1456 100.865 21.0873C99.3562 21.1122 97.8673 20.7436 96.5446 20.018C95.2804 19.3175 94.2452 18.2673 93.5628 16.9933C92.8269 15.6019 92.4588 14.0456 92.4935 12.472C92.4594 10.8924 92.8215 9.32938 93.5469 7.92579C94.216 6.65535 95.2424 5.60859 96.4994 4.91461C97.8325 4.22818 99.3092 3.86725 100.809 3.86136C102.308 3.85546 103.788 4.20477 105.126 4.88069C106.363 5.54578 107.38 6.55575 108.054 7.78789C108.764 9.11519 109.12 10.603 109.089 12.108C109.089 12.651 109.044 13.1932 108.956 13.7289ZM104.708 10.8963C104.717 10.4034 104.616 9.91464 104.414 9.46514C104.211 9.01565 103.912 8.61655 103.537 8.29654C102.754 7.63871 101.758 7.29048 100.736 7.31769C99.7693 7.28772 98.8273 7.62539 98.0999 8.26263C97.3604 8.95409 96.8957 9.88935 96.791 10.8963H104.708Z" fill="#3EA1DA"/>
<path d="M117.878 4.63649C118.794 4.1254 119.829 3.86567 120.877 3.88368V8.30779H119.761C118.434 8.30779 117.439 8.62202 116.765 9.24144C116.092 9.86086 115.759 10.946 115.759 12.4945V20.7911H111.543V4.12332H115.759V6.71628C116.275 5.85256 117.005 5.13628 117.878 4.63649Z" fill="#3EA1DA"/>
<path d="M128.986 7.58448V15.655C128.966 15.8765 128.993 16.0996 129.065 16.31C129.138 16.5203 129.253 16.7131 129.405 16.8758C129.8 17.1658 130.289 17.3001 130.777 17.2533H132.732V20.7912H130.056C126.502 20.7912 124.727 19.0656 124.73 15.6143V7.58448H122.738V4.12343H124.73V0H128.973V4.12343H132.707V7.58448H128.986Z" fill="#3EA1DA"/>
<defs>
<linearGradient id="paint0_linear_1_2319" x1="0.921752" y1="27.5001" x2="134.117" y2="27.5851" gradientUnits="userSpaceOnUse">
<stop stop-color="#05579A"/>
<stop offset="1" stop-color="#3EA1DA"/>
</linearGradient>
<linearGradient id="paint1_linear_1_2319" x1="0.921752" y1="27.5001" x2="134.117" y2="27.5851" gradientUnits="userSpaceOnUse">
<stop stop-color="#05579A"/>
<stop offset="1" stop-color="#3EA1DA"/>
</linearGradient>
<linearGradient id="paint2_linear_1_2319" x1="0.921752" y1="27.5001" x2="134.117" y2="27.5851" gradientUnits="userSpaceOnUse">
<stop stop-color="#05579A"/>
<stop offset="1" stop-color="#3EA1DA"/>
</linearGradient>
<linearGradient id="paint3_linear_1_2319" x1="0.921752" y1="27.5001" x2="134.117" y2="27.5851" gradientUnits="userSpaceOnUse">
<stop stop-color="#05579A"/>
<stop offset="1" stop-color="#3EA1DA"/>
</linearGradient>
<linearGradient id="paint4_linear_1_2319" x1="0.921752" y1="27.5001" x2="134.117" y2="27.5851" gradientUnits="userSpaceOnUse">
<stop stop-color="#05579A"/>
<stop offset="1" stop-color="#3EA1DA"/>
</linearGradient>
<linearGradient id="paint5_linear_1_2319" x1="0.921752" y1="27.5001" x2="134.117" y2="27.5851" gradientUnits="userSpaceOnUse">
<stop stop-color="#05579A"/>
<stop offset="1" stop-color="#3EA1DA"/>
</linearGradient>
<linearGradient id="paint6_linear_1_2319" x1="0.921752" y1="27.5001" x2="134.117" y2="27.5851" gradientUnits="userSpaceOnUse">
<stop stop-color="#05579A"/>
<stop offset="1" stop-color="#3EA1DA"/>
</linearGradient>
<linearGradient id="paint7_linear_1_2319" x1="0.921752" y1="27.5001" x2="134.117" y2="27.5851" gradientUnits="userSpaceOnUse">
<stop stop-color="#05579A"/>
<stop offset="1" stop-color="#3EA1DA"/>
</linearGradient>
<linearGradient id="paint8_linear_1_2319" x1="0.921752" y1="27.5001" x2="134.117" y2="27.5851" gradientUnits="userSpaceOnUse">
<stop stop-color="#05579A"/>
<stop offset="1" stop-color="#3EA1DA"/>
</linearGradient>
<linearGradient id="paint9_linear_1_2319" x1="0.921752" y1="27.5001" x2="134.117" y2="27.5851" gradientUnits="userSpaceOnUse">
<stop stop-color="#05579A"/>
<stop offset="1" stop-color="#3EA1DA"/>
</linearGradient>
<linearGradient id="paint10_linear_1_2319" x1="0.921752" y1="27.5001" x2="134.117" y2="27.5851" gradientUnits="userSpaceOnUse">
<stop stop-color="#05579A"/>
<stop offset="1" stop-color="#3EA1DA"/>
</linearGradient>
<linearGradient id="paint11_linear_1_2319" x1="0.921752" y1="27.5001" x2="134.117" y2="27.5851" gradientUnits="userSpaceOnUse">
<stop stop-color="#05579A"/>
<stop offset="1" stop-color="#3EA1DA"/>
</linearGradient>
<linearGradient id="paint12_linear_1_2319" x1="0.921752" y1="27.5001" x2="134.117" y2="27.5851" gradientUnits="userSpaceOnUse">
<stop stop-color="#05579A"/>
<stop offset="1" stop-color="#3EA1DA"/>
</linearGradient>
<linearGradient id="paint13_linear_1_2319" x1="0.921752" y1="27.5001" x2="134.117" y2="27.5851" gradientUnits="userSpaceOnUse">
<stop stop-color="#05579A"/>
<stop offset="1" stop-color="#3EA1DA"/>
</linearGradient>
<linearGradient id="paint14_linear_1_2319" x1="0.921752" y1="27.5001" x2="134.117" y2="27.5851" gradientUnits="userSpaceOnUse">
<stop stop-color="#05579A"/>
<stop offset="1" stop-color="#3EA1DA"/>
</linearGradient>
<linearGradient id="paint15_linear_1_2319" x1="0.921752" y1="27.5001" x2="134.117" y2="27.5851" gradientUnits="userSpaceOnUse">
<stop stop-color="#05579A"/>
<stop offset="1" stop-color="#3EA1DA"/>
</linearGradient>
</defs>
</svg>
