<svg width="16" height="16" viewBox="0 0 16 16" fill="none" xmlns="http://www.w3.org/2000/svg">
<path d="M9.01855 4.43518C9.01855 3.875 8.56042 3.41666 8.00048 3.41666C7.44054 3.41666 6.98241 3.875 6.98241 4.43518C6.98241 4.99537 7.44054 5.4537 8.00048 5.4537C8.56042 5.4537 9.01855 4.99537 9.01855 4.43518ZM9.01855 11.5648C9.01855 11.0046 8.56042 10.5463 8.00048 10.5463C7.44054 10.5463 6.98241 11.0046 6.98241 11.5648C6.98241 12.125 7.44054 12.5833 8.00048 12.5833C8.56042 12.5833 9.01855 12.125 9.01855 11.5648ZM9.01855 8C9.01855 7.43981 8.56042 6.98148 8.00048 6.98148C7.44054 6.98148 6.98241 7.43981 6.98241 8C6.98241 8.56018 7.44054 9.01852 8.00048 9.01852C8.56042 9.01852 9.01855 8.56018 9.01855 8Z" fill="#141617"/>
</svg>
